<svg xmlns="http://www.w3.org/2000/svg" viewBox="0 0 512 512">
  <rect width="512" height="512" rx="100" fill="#0d1117"/>
  <defs>
    <linearGradient id="flame" x1="0" y1="0" x2="0" y2="1">
      <stop offset="0%" stop-color="#f97316"/>
      <stop offset="100%" stop-color="#ea580c"/>
    </linearGradient>
  </defs>
  <path d="M256 80 C256 80 310 150 320 210 C330 155 300 120 310 80 C370 130 400 200 390 270 C380 340 330 390 256 420 C182 390 132 340 122 270 C112 200 142 130 202 80 C202 120 172 155 182 210 C192 150 256 80 256 80Z" fill="url(#flame)"/>
  <path d="M256 160 C256 160 285 200 290 240 C295 210 278 185 283 160 C310 185 320 225 315 260 C308 295 285 320 256 335 C227 320 204 295 197 260 C192 225 202 185 229 160 C234 185 217 210 222 240 C227 200 256 160 256 160Z" fill="#fb923c" opacity="0.7"/>
</svg>
