<?xml version="1.0" encoding="UTF-8" standalone="no"?>
<svg
   version="1.0"
   width="512"
   height="512"
   viewBox="0 0 512 512"
   id="svg2"
   sodipodi:docname="test3.svg"
   inkscape:version="1.4.3 (0d15f75, 2025-12-25)"
   xmlns:inkscape="http://www.inkscape.org/namespaces/inkscape"
   xmlns:sodipodi="http://sodipodi.sourceforge.net/DTD/sodipodi-0.dtd"
   xmlns="http://www.w3.org/2000/svg"
   xmlns:svg="http://www.w3.org/2000/svg">
  <defs
     id="defs2" />
  <sodipodi:namedview
     id="namedview2"
     pagecolor="#ffffff"
     bordercolor="#000000"
     borderopacity="0.25"
     inkscape:showpageshadow="2"
     inkscape:pageopacity="0.0"
     inkscape:pagecheckerboard="0"
     inkscape:deskcolor="#d1d1d1"
     showgrid="false"
     inkscape:zoom="11.313709"
     inkscape:cx="190.56528"
     inkscape:cy="408.8403"
     inkscape:window-width="1920"
     inkscape:window-height="1009"
     inkscape:window-x="-8"
     inkscape:window-y="-8"
     inkscape:window-maximized="1"
     inkscape:current-layer="svg2" />
  <path
     fill="#f97316"
     d="M 0,256 V 0 H 256 512 V 256 512 H 256 0 Z m 199.4,181.8 c -7.5,-8.1 -12.9,-19.6 -15.5,-32.6 -1.8,-9.4 -0.7,-34.1 1.9,-40.7 1,-2.7 2.5,-7.5 3.2,-10.5 1.4,-6.5 12.5,-29.4 17.5,-36.2 3,-4.1 4.375,-5.7375 7.375,-5.7375 2.8,0 2.85,-1.225 3.525,3.2375 0.3,1.2 0.7,3.3 1,4.7 1.5,7.4 3.3,13.3 3.8,12.5 0.3,-0.6 1.1,-3.5 1.8,-6.5 3.3,-14.5 9.3,-28 17.8,-39.9 7,-9.7 9.5,-12.4 20.6,-22.8 8.3,-7.9 9,-8.3 13.3,-8.3 h 4.5 l -0.6,5.3 c -1.5,14 -1.8,32 -0.6,38 2.5,12.8 3.3,16.4 5.3,23 2.3,7.3 2.7,7.2 4.7,-1.5 1.3,-5.8 1.3,-5.8 5,-5.8 4.3,0 5.8,1.4 12.3,11.5 7.1,11.1 14.3,26.3 18.7,39.4 4,11.9 4,12.2 4,26.9 0,13.9 -0.2,15.4 -2.9,22.8 -3.9,10.9 -6.6,15.9 -11.3,21 -2.2,2.4 -3.8,4.4 -3.5,4.4 3,0 20.2,-10.9 30.5,-19.2 7.5,-6.2 15.4,-15.3 21.5,-24.9 7.4,-11.7 14.2,-32.2 16.6,-50 1.4,-10.4 1.4,-30.3 0.1,-37.8 -0.5,-3.1 -1.4,-8.7 -2,-12.6 -3.9,-24.6 -11.7,-47.9 -25.4,-75.4 l -6.1,-12.3 -1.1,5.8 c -2.7,14.8 -8.5,28.1 -15.5,35.9 -1.9,2 -3.8,4.3 -4.2,5.1 -0.5,0.8 -2.4,1.4 -4.7,1.4 h -3.9 l -0.5,-11.2 c -0.9,-22.5 -4.6,-41.6 -13.5,-70.3 -1.7,-5.5 -3.7,-11.3 -4.5,-13 -0.8,-1.6 -3.6,-7.7 -6.2,-13.5 -6.4,-14 -16.6,-31 -26.5,-44.3 -8.1,-10.8 -38.3,-42.6 -39.5,-41.4 -0.3,0.3 -0.1,3.7 0.5,7.6 1.4,8.8 1.4,27.8 0.1,41.2 -1,9.8 -5.5,31.2 -7,33.4 -0.4,0.6 -1.7,3.9 -2.9,7.5 -5.8,16.9 -17.9,40.4 -37.9,73.1 -35.9,59.1 -47,87.5 -46,117.5 -1.13387,10.92664 1.33389,18.49071 4.3,28.2 0.7,4.1 6.7,17.1 10.9,24 8.8,14.3 16.6,22.6 29.6,31.7 5.3,3.8 23,14.5 23.9,14.5 0.3,0 -0.9,-1.5 -2.5,-3.2 z"
     id="path1"
     sodipodi:nodetypes="ccccccccccccccsccccccscccccsccsccsccccccccccsccccccscccccccccsc" />
  <path
     fill="#ffffff"
     d="M 214,449.9 C 196.4,443.8 172.8,429.7 162,419 149.9,407 141,392.5 135.7,376.2 132.3,365.8 131.91825,359.1414 131.23822,354.55355 130.57499,348.55339 130.74307,352.78951 130.2,341 c -0.7,-32.6 9.5,-58.7 46,-118.9 20,-32.7 32.1,-56.2 37.9,-73.1 1.2,-3.6 2.6,-6.9 2.9,-7.5 0.6,-0.8 4.3,-15.4 5.5,-21.5 2.9,-15.2 2.4,-50 -1,-63.2 -0.5,-1.9 -0.3,-2.8 0.5,-2.8 4.3,0 35,30.7 47.5,47.5 9.3,12.6 19.6,29.9 25.9,43.5 2.6,5.8 5.4,11.9 6.2,13.5 2.2,4.7 12.4,38.3 12.5,41.5 0.1,0.8 0.6,3.5 1.1,6 1.4,6.6 1.7,8.2 2.3,11.5 1.3,7.2 1.9,13.7 2.2,24.3 0.4,10.6 0.43215,13.52723 3.07812,9.81562 1.82808,-2.25397 2.44285,-3.2924 3.9893,-5.38079 C 329.92478,241.48198 340.2,224.1 343.1,207.3 c 0.7,-4 1.6,-7.3 2,-7.3 3.2,0 17.9,30.6 26.2,54.5 5.3,15.2 7.3,22.8 9.7,38 0.6,3.9 1.5,9.5 2,12.6 1.3,7.6 1.2,33.4 -0.1,43.8 -2.4,17.8 -9.2,38.3 -16.6,50 -11.4,18 -28.2,32.6 -49.8,43.4 -7.2,3.5 -22.8,9.7 -24.7,9.7 -2,0 -0.4,-2 4,-4.8 6.7,-4.3 18.5,-16.4 21.6,-22.3 1.5,-2.6 4,-8.6 5.7,-13.1 2.7,-7.6 3,-9.3 2.8,-20.3 -0.1,-7.4 -1.27693,-14.11666 -1.5,-15.2 -0.13576,-0.65934 -0.76812,-2.8519 -0.9,-3.3 -0.15764,-0.53565 -6.5,-19.1 -11,-28 -7,-14 -16.3,-28 -18.5,-28 -0.7,0 -3.5,10.7 -4.6,17.8 -0.4,2.3 -1.1,4.1 -1.7,3.9 -1.4,-0.4 -7.4,-15.7 -8.7,-22 -0.5,-2.9 -1.6,-7.9 -2.3,-11.2 -1.3,-6.6 -1.7,-36.4 -0.4,-43.2 1.1,-6.3 -0.7,-5.6 -10.9,3.9 -11.1,10.5 -13.6,13.2 -20.6,22.9 -9.3,13 -14.5,25.2 -18.8,44.2 -1.2,5.3 -2.6,9.7 -3.1,9.7 -1.9,0 -6.68637,-10.67526 -7.8,-21.8 -0.62999,-6.29332 -0.81865,-6.76277 -1.84194,-5.46291 C 203.39404,327.17445 194.825,348 191.8125,356.5 c -1.21896,3.54799 -1.83549,5.50427 -3.1625,10.675 -1.35,6.5625 -3.45,26.325 -1.75,35.025 1.8,9.2 6.9,21.5 11.1,27.3 3.8,5.2 12.3,13.5 17.4,17 8.5,6 8.2,6.8 -1.4,3.4 z"
     id="path2"
     sodipodi:nodetypes="ccccccccccsccccccccccsccccccsccccsscsccccccccssccccccc" />
</svg>
